<?xml version="1.0" encoding="utf-8"?>
<!-- Generator: Adobe Illustrator 17.1.0, SVG Export Plug-In . SVG Version: 6.00 Build 0)  -->
<!DOCTYPE svg PUBLIC "-//W3C//DTD SVG 1.1//EN" "http://www.w3.org/Graphics/SVG/1.1/DTD/svg11.dtd">
<svg version="1.1" id="Isolation_Mode" xmlns="http://www.w3.org/2000/svg" xmlns:xlink="http://www.w3.org/1999/xlink" x="0px"
	 y="0px" viewBox="0 0 234.2 42.7" enable-background="new 0 0 234.2 42.7" xml:space="preserve">
<g>
	<g>
		<defs>
			<rect id="SVGID_1_" x="-10.3" y="-113.1" width="255.1" height="162.1"/>
		</defs>
		<clipPath id="SVGID_2_">
			<use xlink:href="#SVGID_1_"  overflow="visible"/>
		</clipPath>
	</g>
	<path fill="#CD3428" d="M25.2,19.6H14.5v-7.1c0-2.1-0.1-3.4-0.3-3.9c-0.2-0.5-0.7-0.8-1.5-0.8c-0.9,0-1.4,0.3-1.7,0.9
		c-0.2,0.6-0.4,2-0.4,4v19c0,2,0.1,3.3,0.4,3.9c0.2,0.6,0.8,0.9,1.6,0.9c0.8,0,1.3-0.3,1.6-0.9c0.2-0.6,0.4-2,0.4-4.3v-5.1h10.6v1.6
		c0,4.2-0.3,7.2-0.9,9c-0.6,1.8-1.9,3.3-4,4.7c-2,1.3-4.6,2-7.6,2C9.6,43.6,7,43,5,41.9c-2-1.1-3.4-2.7-4-4.7c-0.7-2-1-5-1-9v-12
		c0-2.9,0.1-5.2,0.3-6.6c0.2-1.5,0.8-2.9,1.8-4.3c1-1.4,2.4-2.4,4.2-3.2C8.1,1.4,10.1,1,12.4,1c3.1,0,5.7,0.6,7.8,1.8
		c2,1.2,3.4,2.7,4,4.5c0.6,1.8,1,4.6,1,8.4V19.6z"/>
	<rect x="29" y="1.8" fill="#CD3428" width="10.6" height="40.9"/>
	<path fill="#CD3428" d="M91.7,1.8l-7.8,26.1v14.8h-9.9V27.9L66.6,1.8h9.8c1.5,8,2.4,13.4,2.6,16.1c0.6-4.4,1.6-9.7,3-16.1H91.7z"/>
	<polygon fill="#CD3428" points="42.1,1.8 42.1,10 48.4,10 48.4,42.7 59,42.7 59,10 65.3,10 65.3,1.8 	"/>
	<path fill="#A6A8AA" d="M125.2,14.2h-9.9v-3c0-1.4-0.1-2.3-0.4-2.7c-0.3-0.4-0.7-0.6-1.3-0.6c-0.6,0-1.1,0.3-1.5,0.8
		c-0.3,0.5-0.5,1.3-0.5,2.4c0,1.4,0.2,2.4,0.6,3.1c0.4,0.7,1.4,1.5,3,2.5c4.7,2.8,7.7,5.1,9,6.9c1.2,1.8,1.8,4.7,1.8,8.7
		c0,2.9-0.3,5.1-1,6.4c-0.7,1.4-2,2.5-4,3.5c-2,0.9-4.2,1.4-6.8,1.4c-2.8,0-5.3-0.5-7.3-1.6c-2-1.1-3.3-2.5-4-4.1
		c-0.6-1.7-0.9-4-0.9-7.1v-2.7h9.9v5c0,1.5,0.1,2.5,0.4,3c0.3,0.4,0.8,0.7,1.5,0.7c0.7,0,1.2-0.3,1.6-0.8c0.3-0.6,0.5-1.4,0.5-2.5
		c0-2.4-0.3-4-1-4.7c-0.7-0.7-2.3-2-5-3.7c-2.6-1.8-4.4-3-5.3-3.8c-0.9-0.8-1.6-1.9-2.1-3.3c-0.6-1.4-0.8-3.2-0.8-5.4
		c0-3.1,0.4-5.4,1.2-6.9c0.8-1.4,2.1-2.6,3.9-3.4c1.8-0.8,3.9-1.2,6.5-1.2c2.8,0,5.1,0.4,7.1,1.3c1.9,0.9,3.2,2,3.9,3.4
		c0.6,1.4,0.9,3.7,0.9,6.9V14.2z"/>
	<rect x="129.4" y="1.8" fill="#A6A8AA" width="10.6" height="40.9"/>
	<polygon fill="#A6A8AA" points="144.3,1.8 144.3,42.7 161.4,42.7 161.4,34.6 155,34.6 155,1.8 	"/>
	<g>
		<path fill="#A6A8AA" d="M187.2,1.8l-5.4,40.9h-16.2l-6.1-40.9h11.2c1.3,11.3,2.2,20.8,2.8,28.6c0.5-7.9,1.1-14.9,1.8-21l0.7-7.6
			H187.2z"/>
	</g>
	<polygon fill="#A6A8AA" points="188.9,1.8 188.9,42.7 207.4,42.7 207.4,34.6 199.6,34.6 199.6,25.6 206.2,25.6 206.2,17.8 
		199.6,17.8 199.6,10 206.7,10 206.7,1.8 	"/>
	<g>
		<path fill="#A6A8AA" d="M210.5,1.8h7.5c5,0,8.4,0.2,10.2,0.6c1.8,0.4,3.2,1.4,4.3,3c1.1,1.6,1.7,4.1,1.7,7.6
			c0,3.2-0.4,5.3-1.2,6.4c-0.8,1.1-2.3,1.8-4.7,2c2.1,0.5,3.5,1.2,4.2,2.1c0.7,0.9,1.2,1.7,1.4,2.4c0.2,0.7,0.3,2.8,0.3,6.1v10.8
			h-9.9V29.1c0-2.2-0.2-3.5-0.5-4.1c-0.3-0.5-1.3-0.8-2.7-0.8v18.5h-10.6V1.8z M221.1,8.8v9.1c1.2,0,2-0.2,2.5-0.5
			c0.5-0.3,0.7-1.4,0.7-3.2V12c0-1.3-0.2-2.1-0.7-2.6C223.2,9,222.3,8.8,221.1,8.8"/>
	</g>
</g>
</svg>
